<?xml version="1.0" encoding="UTF-8" standalone="no"?>
<!-- Created with Inkscape (http://www.inkscape.org/) -->

<svg
   width="53.781082mm"
   height="72.768036mm"
   viewBox="0 0 53.781082 72.768037"
   version="1.1"
   id="svg1"
   xml:space="preserve"
   xmlns="http://www.w3.org/2000/svg"
   xmlns:svg="http://www.w3.org/2000/svg"><defs
     id="defs1" /><g
     id="layer1"
     transform="translate(-1426.8368,-961.38934)"><g
       id="g44"
       transform="translate(32.275213,38.350547)"><g
         id="g8-94-4"
         transform="matrix(1.1711054,0,0,1.1711054,1904.1652,1095.2071)"
         style="stroke-width:3.175;stroke-dasharray:none"><g
           id="g19-4-7"
           transform="matrix(0.43771082,0.14157379,-0.14157379,0.43771082,-745.77377,-387.75567)"
           style="stroke-width:6.90162;stroke-dasharray:none"><path
             style="opacity:1;fill:#ff4d4d;fill-opacity:1;stroke:#000000;stroke-width:6.90162;stroke-linecap:round;stroke-linejoin:round;stroke-dasharray:none;stroke-opacity:1"
             d="m 867.97471,400.41457 c -11.60128,-0.0472 -24.55118,-1.01416 -25.44406,-6.36099 -1.31661,-7.88422 -1.42205,-21.46457 -1.49671,-25.63117 -0.13796,-7.69853 -5.75629,-19.01842 -9.54151,-23.38607 -7.72056,-8.90849 -14.83734,-14.47999 -12.16078,-26.56661 1.35951,-6.13913 6.80736,-14.42775 9.71978,-16.48256 5.77738,-4.07616 8.21254,-0.27255 9.92454,-3.72301 3.70886,-7.47504 5.02262,-14.35472 9.35444,-18.14759 8.11786,-7.10787 47.9097,-4.5799 54.25572,5.42557 6.23447,9.82962 5.46449,32.23815 4.49011,42.46914 -1.10678,11.62121 -6.64728,26.08882 -6.73519,37.79189 -0.0878,11.68926 4.02477,32.17831 -6.54809,33.30179 -4.28764,0.45561 -15.70929,0.89455 -25.81825,1.30961 z"
             id="path9-8-5" /><path
             style="opacity:1;fill:none;fill-opacity:1;stroke:#000000;stroke-width:6.90162;stroke-linecap:round;stroke-linejoin:round;stroke-dasharray:none;stroke-opacity:1"
             d="m 838.41471,299.76088 c -6.18516,13.03198 2.769,18.63424 7.29647,27.68913"
             id="path10-1-4" /><path
             style="opacity:1;fill:none;fill-opacity:1;stroke:#000000;stroke-width:6.90162;stroke-linecap:round;stroke-linejoin:round;stroke-dasharray:none;stroke-opacity:1"
             d="m 841.40814,365.61608 c 11.88339,5.94913 48.08659,11.9679 58.37166,-0.37417"
             id="path11-2-8" /><path
             style="opacity:1;fill:#eab8c9;fill-opacity:0.501606;stroke:none;stroke-width:6.90162;stroke-linecap:round;stroke-linejoin:round;stroke-dasharray:none;stroke-opacity:1"
             d="m 850.87767,282.44852 c -5.40294,6.767 -5.9432,9.92914 -2.70925,12.398 6.46162,4.93293 46.79584,1.52674 51.50018,-0.4947 3.40848,-1.46461 3.11289,-1.90437 1.60239,-5.18529 -4.01052,-8.71112 -44.83546,-11.48189 -50.39332,-6.71801 z"
             id="path13-3-2" /><path
             style="opacity:1;fill:#eab8c9;fill-opacity:0.501606;stroke:none;stroke-width:6.90162;stroke-linecap:round;stroke-linejoin:round;stroke-dasharray:none;stroke-opacity:1"
             d="m 831.67952,305.75323 c -7.53729,2.60535 5.76358,30.09153 10.1028,26.94074 5.1921,-3.77007 -3.73957,-12.90026 -5.3802,-16.72835 -1.6193,-3.77844 -1.24425,-7.60366 -4.7226,-10.21239 z"
             id="path14-9-8" /><path
             style="opacity:1;fill:#eab8c9;fill-opacity:0.501606;stroke:none;stroke-width:6.90162;stroke-linecap:round;stroke-linejoin:round;stroke-dasharray:none;stroke-opacity:1"
             d="m 821.30275,321.92813 c -1.86274,3.98558 6.89816,21.85408 12.99602,18.80516 0.87651,-0.43826 -3.92258,-5.28027 -4.30306,-5.98684 -2.61413,-4.85484 -4.49299,-9.21834 -8.69296,-12.81832 z"
             id="path16-0-9" /><path
             style="opacity:1;fill:#5c6853;fill-opacity:0.295427;stroke:none;stroke-width:6.90162;stroke-linecap:round;stroke-linejoin:round;stroke-dasharray:none;stroke-opacity:1"
             d="m 847.67836,353.78867 c 4.36681,0.97885 12.24934,13.46242 13.66914,16.60779 1.04485,2.31474 -11.4298,-1.72819 -19.90721,-5.55598 -5.63673,-2.54514 -6.23222,-13.58929 -9.98063,-21.75092 -1.48532,-3.23409 9.71183,6.36733 16.2187,10.69911 z"
             id="path18-8-3" /><path
             style="opacity:1;fill:#5c6853;fill-opacity:0.295427;stroke:none;stroke-width:6.90162;stroke-linecap:round;stroke-linejoin:round;stroke-dasharray:none;stroke-opacity:1"
             d="m 897.80871,306.86796 c -1.13599,25.56293 -26.29966,72.86801 -5.23849,62.02011 11.82804,-6.09222 7.44025,-15.70162 8.34542,-17.7835 3.49729,-8.04383 6.2398,-24.5228 5.59935,-34.31862 -0.14706,-2.2493 2.53851,-40.50908 -8.70628,-9.91799 z"
             id="path19-8-6" /></g></g></g></g></svg>
