<?xml version="1.0" encoding="UTF-8" standalone="no"?>
<!-- Created with Inkscape (http://www.inkscape.org/) -->

<svg
   width="655.28088mm"
   height="91.609138mm"
   viewBox="0 0 655.28088 91.60914"
   version="1.1"
   id="svg1"
   xml:space="preserve"
   xmlns="http://www.w3.org/2000/svg"
   xmlns:svg="http://www.w3.org/2000/svg"><defs
     id="defs1" /><g
     id="layer1"
     transform="translate(-1051.4104,-994.74078)"><g
       id="g45"
       transform="translate(0,-133.17321)"
       style="stroke-width:2.64583;stroke-dasharray:none"><path
         d="m 1201.4199,1217.2206 -4.8789,-60.822 h 18.6956 l 1.037,23.5941 c 0.2175,5.1161 0.3772,10.2459 0.479,15.3892 0.1086,5.1161 0.5031,5.1161 3.1431,0 2.6468,-5.1433 5.3582,-10.2731 8.1341,-15.3892 l 12.7602,-23.5941 h 18.4507 l -35.2881,60.822 z m 78.0676,-60.822 -15.5312,60.822 h -16.9812 l 15.5312,-60.822 z m 18.6709,61.8017 c -5.5243,0 -10.2225,-1.211 -14.0942,-3.633 -3.8445,-2.422 -6.479,-5.9597 -7.9031,-10.6132 -1.4173,-4.6807 -1.2677,-10.3819 0.4488,-17.1036 1.7303,-6.7762 4.4993,-12.5046 8.307,-17.1853 3.8078,-4.6807 8.249,-8.2185 13.3235,-10.6132 5.1087,-2.422 10.4251,-3.633 15.9494,-3.633 3.8915,0 7.3241,0.5715 10.298,1.7144 2.9737,1.143 5.4177,2.7622 7.3318,4.8576 1.9413,2.0954 3.2987,4.6126 4.0722,7.5517 0.8007,2.9391 0.9464,6.2047 0.4373,9.7968 h -17.1036 c 0.1235,-1.4423 0.018,-2.7349 -0.316,-3.8779 -0.3074,-1.1429 -0.822,-2.109 -1.5459,-2.8982 -0.7237,-0.7892 -1.6457,-1.3879 -2.7661,-1.7961 -1.0862,-0.4354 -2.3641,-0.6531 -3.8336,-0.6531 -2.7485,0 -5.2421,0.6531 -7.4806,1.9594 -2.2112,1.3062 -4.1263,3.2111 -5.7453,5.7148 -1.6121,2.4764 -2.8733,5.4971 -3.7836,9.0621 -0.9034,3.5377 -1.195,6.5448 -0.875,9.0212 0.3474,2.4764 1.3067,4.3677 2.8781,5.674 1.5713,1.3063 3.7313,1.9594 6.4798,1.9594 1.4695,0 2.8552,-0.2041 4.1568,-0.6123 1.3017,-0.4082 2.5158,-1.0069 3.6426,-1.7961 1.1338,-0.8164 2.1424,-1.7825 3.0261,-2.8983 0.9177,-1.1429 1.6934,-2.4219 2.3268,-3.837 h 17.1036 c -1.3527,3.5921 -3.1663,6.8577 -5.4407,9.7968 -2.2675,2.9118 -4.907,5.4154 -7.9185,7.5109 -3.0115,2.0954 -6.2959,3.7146 -9.8535,4.8576 -3.5233,1.1157 -7.2306,1.6736 -11.1221,1.6736 z m 43.5437,-47.433 3.6691,-14.3687 h 51.5966 l -3.6691,14.3687 h -17.3077 l -11.8621,46.4533 h -16.9812 l 11.8621,-46.4533 z m 69.4872,47.433 c -5.5243,0 -10.2225,-1.211 -14.0942,-3.633 -3.8445,-2.422 -6.479,-5.9597 -7.9031,-10.6132 -1.4173,-4.6807 -1.2677,-10.3819 0.4488,-17.1036 1.7303,-6.7762 4.4993,-12.5046 8.307,-17.1853 3.8078,-4.6807 8.249,-8.2185 13.3235,-10.6132 5.1087,-2.422 10.4251,-3.633 15.9494,-3.633 5.5243,0 10.2089,1.211 14.0534,3.633 3.8515,2.3947 6.4858,5.9325 7.903,10.6132 1.4445,4.6807 1.3015,10.4091 -0.4288,17.1853 -1.7234,6.7489 -4.5025,12.4637 -8.3374,17.1444 -3.8009,4.6535 -8.2419,8.1912 -13.3234,10.6132 -5.0745,2.3948 -10.3739,3.5922 -15.8982,3.5922 z m 3.7524,-14.6952 c 2.6669,0 5.0924,-0.6531 7.2765,-1.9594 2.1909,-1.3335 4.0789,-3.2384 5.6637,-5.7148 1.5919,-2.5037 2.8325,-5.4971 3.722,-8.9804 0.8964,-3.5105 1.1881,-6.5176 0.8749,-9.0213 -0.3132,-2.5036 -1.2283,-4.4085 -2.7451,-5.7148 -1.5101,-1.3335 -3.5985,-2.0002 -6.2654,-2.0002 -2.6397,0 -5.0551,0.6667 -7.246,2.0002 -2.1842,1.3063 -4.0857,3.2112 -5.7047,5.7148 -1.5918,2.5037 -2.8359,5.5108 -3.7323,9.0213 -0.8895,3.4833 -1.1777,6.4767 -0.8646,8.9804 0.3474,2.4764 1.2755,4.3813 2.7861,5.7148 1.5169,1.3063 3.5952,1.9594 6.2349,1.9594 z m 30.9499,13.7155 15.5312,-60.822 h 25.8391 c 4.844,0 8.8126,0.8708 11.9055,2.6125 3.0999,1.7145 5.1959,4.1637 6.2877,7.3477 1.1262,3.1567 1.1332,6.9122 0.022,11.2663 -1.0772,4.2181 -3.0153,7.8647 -5.8143,10.9398 -2.7718,3.0751 -6.2101,5.4563 -10.3148,7.1435 -4.0705,1.66 -8.6228,2.49 -13.6573,2.49 l -7.917,-0.095 3.3564,-13.144 7.5495,0.095 c 1.709,0.021 3.2638,-0.313 4.6484,-0.9389 1.4116,-0.6259 2.6001,-1.4968 3.5653,-2.6125 0.9652,-1.1157 1.6355,-2.4084 2.0108,-3.8779 0.3821,-1.4967 0.372,-2.7894 -0.03,-3.8779 -0.3958,-1.1157 -1.1391,-1.9866 -2.2312,-2.6125 -1.0648,-0.6259 -2.4544,-0.9389 -4.1688,-0.9389 h -7.5926 l -12.008,47.0248 z m 33.6766,0 -4.1616,-18.9355 8.1675,-0.6694 7.8229,-2.6867 5.8463,22.2916 z m 38.5342,0 5.2952,-20.7366 -12.4192,-40.0854 h 19.4304 l 4.3784,17.0629 c 0.3462,1.4151 0.6652,2.8301 0.957,4.2452 0.3192,1.4151 1.3879,0 1.3879,0 0.9872,-1.4151 2.0017,-2.8301 3.0433,-4.2452 l 12.562,-17.0629 h 19.3079 l -32.2381,40.0854 -5.2952,20.7366 z"
         id="text44"
         style="font-size:83.5996px;font-family:'Adwaita Sans';-inkscape-font-specification:'Adwaita Sans, @opsz=32,wght=900';font-variation-settings:'opsz' 32, 'wght' 900;fill:#ffffff;stroke:#000000;stroke-width:2.64583;stroke-linecap:round;stroke-linejoin:bevel;stroke-dasharray:none"
         aria-label="VICTORY" /><g
         id="g19-6-7"
         transform="matrix(-0.265272,1,1,0,1531.8186,310.4671)"
         style="stroke-width:2.64583;stroke-dasharray:none"><path
           style="opacity:1;fill:#ff4d4d;fill-opacity:1;stroke:#000000;stroke-width:2.64583;stroke-linecap:round;stroke-linejoin:round;stroke-dasharray:none;stroke-opacity:1"
           d="m 867.97471,400.41457 c -11.60128,-0.0472 -24.55118,-1.01416 -25.44406,-6.36099 -1.31661,-7.88422 -1.42205,-21.46457 -1.49671,-25.63117 -0.13796,-7.69853 -5.75629,-19.01842 -9.54151,-23.38607 -7.72056,-8.90849 -14.83734,-14.47999 -12.16078,-26.56661 1.35951,-6.13913 6.80736,-14.42775 9.71978,-16.48256 5.77738,-4.07616 8.21254,-0.27255 9.92454,-3.72301 3.70886,-7.47504 5.02262,-14.35472 9.35444,-18.14759 8.11786,-7.10787 47.9097,-4.5799 54.25572,5.42557 6.23447,9.82962 5.46449,32.23815 4.49011,42.46914 -1.10678,11.62121 -6.64728,26.08882 -6.73519,37.79189 -0.0878,11.68926 4.02477,32.17831 -6.54809,33.30179 -4.28764,0.45561 -15.70929,0.89455 -25.81825,1.30961 z"
           id="path9-4-6" /><path
           style="opacity:1;fill:none;fill-opacity:1;stroke:#000000;stroke-width:2.64583;stroke-linecap:round;stroke-linejoin:round;stroke-dasharray:none;stroke-opacity:1"
           d="m 838.41471,299.76088 c -6.18516,13.03198 2.769,18.63424 7.29647,27.68913"
           id="path10-3-1" /><path
           style="opacity:1;fill:none;fill-opacity:1;stroke:#000000;stroke-width:2.64583;stroke-linecap:round;stroke-linejoin:round;stroke-dasharray:none;stroke-opacity:1"
           d="m 841.40814,365.61608 c 11.88339,5.94913 48.08659,11.9679 58.37166,-0.37417"
           id="path11-3-3" /><path
           style="opacity:1;fill:#712b2b;fill-opacity:1;stroke:none;stroke-width:10;stroke-linecap:round;stroke-linejoin:round;stroke-dasharray:none;stroke-opacity:1"
           d="m 2296.1898,1336.2896 c -1.2066,5.7569 -0.168,12.2158 -0.4461,18.2384 0.6398,27.0994 1.4689,54.3196 5.5049,81.1584 0.7847,8.5871 10.1081,11.8193 17.0811,14.2347 30.1485,8.7131 61.9844,7.877 93.0503,7.045 26.2685,-1.2285 52.6131,-1.7057 78.7946,-4.2608 8.7434,-0.3894 15.8123,-6.9553 18.7746,-14.8894 7.4621,-17.8553 4.9951,-37.6513 5.1994,-56.4869 -0.5444,-14.4893 -0.5966,-29.2329 -2.6945,-43.5008 -2.8653,-0.17 -5.057,3.5915 -7.8459,4.7356 -25.9129,15.4587 -57.1314,17.4123 -86.6421,16.7755 -40.7542,-1.17 -81.7733,-8.0814 -119.9118,-23.1077 l -0.7055,0.047 z"
           id="path12-3-2"
           transform="matrix(0.26458333,0,0,0.26458333,234.67958,13.702305)" /><path
           style="opacity:1;fill:#eab8c9;fill-opacity:0.501606;stroke:none;stroke-width:2.64583;stroke-linecap:round;stroke-linejoin:round;stroke-dasharray:none;stroke-opacity:1"
           d="m 850.87767,282.44852 c -5.40294,6.767 -5.9432,9.92914 -2.70925,12.398 6.46162,4.93293 46.79584,1.52674 51.50018,-0.4947 3.40848,-1.46461 3.11289,-1.90437 1.60239,-5.18529 -4.01052,-8.71112 -44.83546,-11.48189 -50.39332,-6.71801 z"
           id="path13-8-1" /><path
           style="opacity:1;fill:#eab8c9;fill-opacity:0.501606;stroke:none;stroke-width:2.64583;stroke-linecap:round;stroke-linejoin:round;stroke-dasharray:none;stroke-opacity:1"
           d="m 831.67952,305.75323 c -7.53729,2.60535 5.76358,30.09153 10.1028,26.94074 5.1921,-3.77007 -3.73957,-12.90026 -5.3802,-16.72835 -1.6193,-3.77844 -1.24425,-7.60366 -4.7226,-10.21239 z"
           id="path14-6-5" /><path
           style="opacity:1;fill:#eab8c9;fill-opacity:0.501606;stroke:none;stroke-width:2.64583;stroke-linecap:round;stroke-linejoin:round;stroke-dasharray:none;stroke-opacity:1"
           d="m 821.30275,321.92813 c -1.86274,3.98558 6.89816,21.85408 12.99602,18.80516 0.87651,-0.43826 -3.92258,-5.28027 -4.30306,-5.98684 -2.61413,-4.85484 -4.49299,-9.21834 -8.69296,-12.81832 z"
           id="path16-04-9" /><path
           style="opacity:1;fill:#5c6853;fill-opacity:0.295427;stroke:none;stroke-width:2.64583;stroke-linecap:round;stroke-linejoin:round;stroke-dasharray:none;stroke-opacity:1"
           d="m 847.67836,353.78867 c 4.36681,0.97885 12.24934,13.46242 13.66914,16.60779 1.04485,2.31474 -11.4298,-1.72819 -19.90721,-5.55598 -5.63673,-2.54514 -6.23222,-13.58929 -9.98063,-21.75092 -1.48532,-3.23409 9.71183,6.36733 16.2187,10.69911 z"
           id="path18-88-9" /><path
           style="opacity:1;fill:#5c6853;fill-opacity:0.295427;stroke:none;stroke-width:2.64583;stroke-linecap:round;stroke-linejoin:round;stroke-dasharray:none;stroke-opacity:1"
           d="m 897.80871,306.86796 c -1.13599,25.56293 -26.29966,72.86801 -5.23849,62.02011 11.82804,-6.09222 7.44025,-15.70162 8.34542,-17.7835 3.49729,-8.04383 6.2398,-24.5228 5.59935,-34.31862 -0.14706,-2.2493 2.53851,-40.50908 -8.70628,-9.91799 z"
           id="path19-89-1" /></g><g
         id="g19-6-75"
         transform="matrix(-0.24869249,1,-1,0,1674.2274,310.4671)"
         style="stroke-width:2.64583;stroke-dasharray:none"><path
           style="opacity:1;fill:#ff4d4d;fill-opacity:1;stroke:#000000;stroke-width:2.64583;stroke-linecap:round;stroke-linejoin:round;stroke-dasharray:none;stroke-opacity:1"
           d="m 867.97471,400.41457 c -11.60128,-0.0472 -24.55118,-1.01416 -25.44406,-6.36099 -1.31661,-7.88422 -1.42205,-21.46457 -1.49671,-25.63117 -0.13796,-7.69853 -5.75629,-19.01842 -9.54151,-23.38607 -7.72056,-8.90849 -14.83734,-14.47999 -12.16078,-26.56661 1.35951,-6.13913 6.80736,-14.42775 9.71978,-16.48256 5.77738,-4.07616 8.21254,-0.27255 9.92454,-3.72301 3.70886,-7.47504 5.02262,-14.35472 9.35444,-18.14759 8.11786,-7.10787 47.9097,-4.5799 54.25572,5.42557 6.23447,9.82962 5.46449,32.23815 4.49011,42.46914 -1.10678,11.62121 -6.64728,26.08882 -6.73519,37.79189 -0.0878,11.68926 4.02477,32.17831 -6.54809,33.30179 -4.28764,0.45561 -15.70929,0.89455 -25.81825,1.30961 z"
           id="path9-4-8" /><path
           style="opacity:1;fill:none;fill-opacity:1;stroke:#000000;stroke-width:2.64583;stroke-linecap:round;stroke-linejoin:round;stroke-dasharray:none;stroke-opacity:1"
           d="m 838.41471,299.76088 c -6.18516,13.03198 2.769,18.63424 7.29647,27.68913"
           id="path10-3-7" /><path
           style="opacity:1;fill:none;fill-opacity:1;stroke:#000000;stroke-width:2.64583;stroke-linecap:round;stroke-linejoin:round;stroke-dasharray:none;stroke-opacity:1"
           d="m 841.40814,365.61608 c 11.88339,5.94913 48.08659,11.9679 58.37166,-0.37417"
           id="path11-3-0" /><path
           style="opacity:1;fill:#712b2b;fill-opacity:1;stroke:none;stroke-width:10;stroke-linecap:round;stroke-linejoin:round;stroke-dasharray:none;stroke-opacity:1"
           d="m 2296.1898,1336.2896 c -1.2066,5.7569 -0.168,12.2158 -0.4461,18.2384 0.6398,27.0994 1.4689,54.3196 5.5049,81.1584 0.7847,8.5871 10.1081,11.8193 17.0811,14.2347 30.1485,8.7131 61.9844,7.877 93.0503,7.045 26.2685,-1.2285 52.6131,-1.7057 78.7946,-4.2608 8.7434,-0.3894 15.8123,-6.9553 18.7746,-14.8894 7.4621,-17.8553 4.9951,-37.6513 5.1994,-56.4869 -0.5444,-14.4893 -0.5966,-29.2329 -2.6945,-43.5008 -2.8653,-0.17 -5.057,3.5915 -7.8459,4.7356 -25.9129,15.4587 -57.1314,17.4123 -86.6421,16.7755 -40.7542,-1.17 -81.7733,-8.0814 -119.9118,-23.1077 l -0.7055,0.047 z"
           id="path12-3-4"
           transform="matrix(0.26458333,0,0,0.26458333,234.67958,13.702305)" /><path
           style="opacity:1;fill:#eab8c9;fill-opacity:0.501606;stroke:none;stroke-width:2.64583;stroke-linecap:round;stroke-linejoin:round;stroke-dasharray:none;stroke-opacity:1"
           d="m 850.87767,282.44852 c -5.40294,6.767 -5.9432,9.92914 -2.70925,12.398 6.46162,4.93293 46.79584,1.52674 51.50018,-0.4947 3.40848,-1.46461 3.11289,-1.90437 1.60239,-5.18529 -4.01052,-8.71112 -44.83546,-11.48189 -50.39332,-6.71801 z"
           id="path13-8-8" /><path
           style="opacity:1;fill:#eab8c9;fill-opacity:0.501606;stroke:none;stroke-width:2.64583;stroke-linecap:round;stroke-linejoin:round;stroke-dasharray:none;stroke-opacity:1"
           d="m 831.67952,305.75323 c -7.53729,2.60535 5.76358,30.09153 10.1028,26.94074 5.1921,-3.77007 -3.73957,-12.90026 -5.3802,-16.72835 -1.6193,-3.77844 -1.24425,-7.60366 -4.7226,-10.21239 z"
           id="path14-6-0" /><path
           style="opacity:1;fill:#eab8c9;fill-opacity:0.501606;stroke:none;stroke-width:2.64583;stroke-linecap:round;stroke-linejoin:round;stroke-dasharray:none;stroke-opacity:1"
           d="m 821.30275,321.92813 c -1.86274,3.98558 6.89816,21.85408 12.99602,18.80516 0.87651,-0.43826 -3.92258,-5.28027 -4.30306,-5.98684 -2.61413,-4.85484 -4.49299,-9.21834 -8.69296,-12.81832 z"
           id="path16-04-4" /><path
           style="opacity:1;fill:#5c6853;fill-opacity:0.295427;stroke:none;stroke-width:2.64583;stroke-linecap:round;stroke-linejoin:round;stroke-dasharray:none;stroke-opacity:1"
           d="m 847.67836,353.78867 c 4.36681,0.97885 12.24934,13.46242 13.66914,16.60779 1.04485,2.31474 -11.4298,-1.72819 -19.90721,-5.55598 -5.63673,-2.54514 -6.23222,-13.58929 -9.98063,-21.75092 -1.48532,-3.23409 9.71183,6.36733 16.2187,10.69911 z"
           id="path18-88-2" /><path
           style="opacity:1;fill:#5c6853;fill-opacity:0.295427;stroke:none;stroke-width:2.64583;stroke-linecap:round;stroke-linejoin:round;stroke-dasharray:none;stroke-opacity:1"
           d="m 897.80871,306.86796 c -1.13599,25.56293 -26.29966,72.86801 -5.23849,62.02011 11.82804,-6.09222 7.44025,-15.70162 8.34542,-17.7835 3.49729,-8.04383 6.2398,-24.5228 5.59935,-34.31862 -0.14706,-2.2493 2.53851,-40.50908 -8.70628,-9.91799 z"
           id="path19-89-9" /></g></g></g></svg>
