<?xml version="1.0" encoding="UTF-8" standalone="no"?>
<!-- Created with Inkscape (http://www.inkscape.org/) -->

<svg
   width="21.033211mm"
   height="19.139462mm"
   viewBox="0 0 21.033211 19.139462"
   version="1.1"
   id="svg1"
   xmlns="http://www.w3.org/2000/svg"
   xmlns:svg="http://www.w3.org/2000/svg">
  <defs
     id="defs1" />
  <g
     id="layer1"
     transform="translate(-754.95825,-190.39769)">
    <g
       id="g9">
      <path
         id="path2-9"
         style="fill:#ff4444;fill-opacity:1;stroke:none;stroke-width:1.85208;stroke-linecap:round;stroke-linejoin:round;stroke-dasharray:none;stroke-opacity:1"
         d="m 761.39885,193.02366 -2.84479,2.78794 -1.59013,4.69628 3.42279,1.82491 1.87203,5.57368 3.07681,-0.3793 2.92665,-1.49185 3.57115,1.31201 1.21388,-1.46554 0.77979,-3.11144 -2.37652,-2.28049 3.56353,-4.33874 -1.99419,-2.26446 -5.47409,-0.16589 -2.05901,2.69876 -1.84566,-2.14685 -1.2175,-2.29965 z m 0.57954,4.42918 0.63965,1.47969 0.83573,-3.47525 1.61476,6.30907 2.26623,-0.0945 0.66688,-2.70532 4.71137,-1.96788 -2.75362,3.30995 2.04107,1.70761 -3.07897,-0.0186 -0.0252,2.25515 -1.96878,0.1251 -2.26747,-2.21798 -0.7751,0.59761 -0.54552,-1.14672 -3.41011,-1.50214 0.50648,-2.23055 z" />
      <path
         id="path2-9-9"
         style="fill:#ff8080;fill-opacity:1;stroke:none;stroke-width:0.918915;stroke-linecap:round;stroke-linejoin:round;stroke-dasharray:none;stroke-opacity:1"
         d="m 763.32208,196.99795 -2.83359,1.05252 0.20325,2.69387 2.12817,0.87236 0.92882,2.7654 1.52657,-0.18819 1.20593,-1.39655 2.01797,1.30732 0.60227,-0.72713 0.84992,-1.37839 -1.64214,-1.29683 1.76805,-2.15268 -0.98942,-1.12352 -2.71599,-0.0823 -1.02158,1.339 -0.91573,-1.06516 -0.60407,-1.14098 z m 0.44078,3.31582 0.46233,-0.11216 0.19674,-1.59799 0.7837,0.97813 0.40423,1.4259 1.10527,-0.28805 2.22051,-1.74948 -1.36622,1.64224 1.01269,0.84724 -0.30665,1.0934 -0.38649,0.48588 -1.43599,-1.01681 -0.92627,0.81488 -1.27551,0.56821 0.0784,-1.99344 -2.08174,-1.09951 0.8414,-0.7359 z" />
      <path
         id="path2-9-9-7"
         style="fill:#ff4444;fill-opacity:1;stroke:none;stroke-width:1.55756;stroke-linecap:round;stroke-linejoin:round;stroke-dasharray:none;stroke-opacity:1"
         d="m 758.39503,196.98157 h 1.92044 l -1.50614,1.88332 -1.56044,0.33657 -2.2906,-2.89075 1.44134,-0.19273 z" />
      <path
         id="path2-9-9-7-3"
         style="fill:#ff6868;fill-opacity:1;stroke:none;stroke-width:1.42051;stroke-linecap:round;stroke-linejoin:round;stroke-dasharray:none;stroke-opacity:1"
         d="m 770.75226,194.02391 -0.72346,2.3481 -0.18536,-2.31855 0.72018,-1.90425 2.96948,-1.75151 -0.73197,1.72246 z" />
      <path
         id="path2-9-9-7-3-3"
         style="fill:#ff4444;fill-opacity:1;stroke:none;stroke-width:0.918915;stroke-linecap:round;stroke-linejoin:round;stroke-dasharray:none;stroke-opacity:1"
         d="m 761.95898,204.96374 0.72924,-1.41118 0.13213,1.47058 -0.46671,1.21167 -1.95048,1.12474 0.47527,-1.09636 z" />
      <path
         id="path2-9-9-7-3-5"
         style="fill:#ff9c9c;fill-opacity:1;stroke:none;stroke-width:0.918915;stroke-linecap:round;stroke-linejoin:round;stroke-dasharray:none;stroke-opacity:1"
         d="m 774.40365,202.55453 1.58786,0.0439 -1.26723,0.75776 -1.85636,1.36265 -1.29804,-2.52515 1.19397,-0.0481 z" />
      <path
         id="path2-9-9-7-5"
         style="fill:#ff9696;fill-opacity:1;stroke:none;stroke-width:0.918915;stroke-linecap:round;stroke-linejoin:round;stroke-dasharray:none;stroke-opacity:1"
         d="m 757.72263,201.25957 2.08311,-0.63928 -0.23843,1.45712 -1.08462,0.528 -1.83848,1.13248 0.73344,-0.94338 z" />
      <path
         id="path2-9-9-7-3-6"
         style="fill:#ff4444;fill-opacity:1;stroke:none;stroke-width:0.68156;stroke-linecap:round;stroke-linejoin:round;stroke-dasharray:none;stroke-opacity:1"
         d="m 766.22956,195.47633 0.30646,1.48757 -0.64863,-0.88873 -0.32198,-1.15905 0.26116,-2.20093 1.0986,0.92267 z" />
      <path
         id="path2-9-9-7-3-3-9"
         style="fill:#ff4444;fill-opacity:1;stroke:none;stroke-width:0.918915;stroke-linecap:round;stroke-linejoin:round;stroke-dasharray:none;stroke-opacity:1"
         d="m 766.51094,207.08016 1.06339,-1.7376 0.96201,1.12009 -0.46956,1.05888 0.68665,2.01564 -1.07705,-0.93693 z" />
      <path
         id="path2-9-9-7-3-5-3"
         style="fill:#ff4444;fill-opacity:1;stroke:none;stroke-width:0.918915;stroke-linecap:round;stroke-linejoin:round;stroke-dasharray:none;stroke-opacity:1"
         d="m 774.08268,194.63769 1.88393,-0.49383 -0.27863,1.44997 -0.98127,0.67212 -1.98663,0.90687 0.75925,-0.92272 z" />
    </g>
  </g>
</svg>
