<?xml version="1.0" encoding="UTF-8" standalone="no"?>
<!-- Created with Inkscape (http://www.inkscape.org/) -->

<svg
   width="91.345779mm"
   height="126.72792mm"
   viewBox="0 0 91.345779 126.72792"
   version="1.1"
   id="svg1"
   xml:space="preserve"
   xmlns="http://www.w3.org/2000/svg"
   xmlns:svg="http://www.w3.org/2000/svg"><defs
     id="defs1" /><g
     id="layer1"
     transform="translate(-817.57797,-274.8773)"><g
       id="g19"><path
         style="opacity:1;fill:#ff4d4d;fill-opacity:1;stroke:#000000;stroke-width:2.38125;stroke-linecap:round;stroke-linejoin:round;stroke-dasharray:none;stroke-opacity:1"
         d="m 867.97471,400.41457 c -11.60128,-0.0472 -24.55118,-1.01416 -25.44406,-6.36099 -1.31661,-7.88422 -1.42205,-21.46457 -1.49671,-25.63117 -0.13796,-7.69853 -5.75629,-19.01842 -9.54151,-23.38607 -7.72056,-8.90849 -14.83734,-14.47999 -12.16078,-26.56661 1.35951,-6.13913 6.80736,-14.42775 9.71978,-16.48256 5.77738,-4.07616 8.21254,-0.27255 9.92454,-3.72301 3.70886,-7.47504 5.02262,-14.35472 9.35444,-18.14759 8.11786,-7.10787 47.9097,-4.5799 54.25572,5.42557 6.23447,9.82962 5.46449,32.23815 4.49011,42.46914 -1.10678,11.62121 -6.64728,26.08882 -6.73519,37.79189 -0.0878,11.68926 4.02477,32.17831 -6.54809,33.30179 -4.28764,0.45561 -15.70929,0.89455 -25.81825,1.30961 z"
         id="path9" /><path
         style="opacity:1;fill:none;fill-opacity:1;stroke:#000000;stroke-width:2.38125;stroke-linecap:round;stroke-linejoin:round;stroke-dasharray:none;stroke-opacity:1"
         d="m 838.41471,299.76088 c -6.18516,13.03198 2.769,18.63424 7.29647,27.68913"
         id="path10" /><path
         style="opacity:1;fill:none;fill-opacity:1;stroke:#000000;stroke-width:2.38125;stroke-linecap:round;stroke-linejoin:round;stroke-dasharray:none;stroke-opacity:1"
         d="m 841.40814,365.61608 c 11.88339,5.94913 48.08659,11.9679 58.37166,-0.37417"
         id="path11" /><path
         style="opacity:1;fill:#712b2b;fill-opacity:1;stroke:none;stroke-width:6.36396;stroke-linecap:round;stroke-linejoin:round;stroke-dasharray:none;stroke-opacity:1"
         d="m 2296.1898,1336.2896 c -1.2066,5.7569 -0.168,12.2158 -0.4461,18.2384 0.6398,27.0994 1.4689,54.3196 5.5049,81.1584 0.7847,8.5871 10.1081,11.8193 17.0811,14.2347 30.1485,8.7131 61.9844,7.877 93.0503,7.045 26.2685,-1.2285 52.6131,-1.7057 78.7946,-4.2608 8.7434,-0.3894 15.8123,-6.9553 18.7746,-14.8894 7.4621,-17.8553 4.9951,-37.6513 5.1994,-56.4869 -0.5444,-14.4893 -0.5966,-29.2329 -2.6945,-43.5008 -2.8653,-0.17 -5.057,3.5915 -7.8459,4.7356 -25.9129,15.4587 -57.1314,17.4123 -86.6421,16.7755 -40.7542,-1.17 -81.7733,-8.0814 -119.9118,-23.1077 l -0.7055,0.047 z"
         id="path12"
         transform="matrix(0.26458333,0,0,0.26458333,234.67958,13.702305)" /><path
         style="opacity:1;fill:#eab8c9;fill-opacity:0.501606;stroke:none;stroke-width:2.38125;stroke-linecap:round;stroke-linejoin:round;stroke-dasharray:none;stroke-opacity:1"
         d="m 850.87767,282.44852 c -5.40294,6.767 -5.9432,9.92914 -2.70925,12.398 6.46162,4.93293 46.79584,1.52674 51.50018,-0.4947 3.40848,-1.46461 3.11289,-1.90437 1.60239,-5.18529 -4.01052,-8.71112 -44.83546,-11.48189 -50.39332,-6.71801 z"
         id="path13" /><path
         style="opacity:1;fill:#eab8c9;fill-opacity:0.501606;stroke:none;stroke-width:2.38125;stroke-linecap:round;stroke-linejoin:round;stroke-dasharray:none;stroke-opacity:1"
         d="m 831.67952,305.75323 c -7.53729,2.60535 5.76358,30.09153 10.1028,26.94074 5.1921,-3.77007 -3.73957,-12.90026 -5.3802,-16.72835 -1.6193,-3.77844 -1.24425,-7.60366 -4.7226,-10.21239 z"
         id="path14" /><path
         style="opacity:1;fill:#eab8c9;fill-opacity:0.501606;stroke:none;stroke-width:2.38125;stroke-linecap:round;stroke-linejoin:round;stroke-dasharray:none;stroke-opacity:1"
         d="m 821.30275,321.92813 c -1.86274,3.98558 6.89816,21.85408 12.99602,18.80516 0.87651,-0.43826 -3.92258,-5.28027 -4.30306,-5.98684 -2.61413,-4.85484 -4.49299,-9.21834 -8.69296,-12.81832 z"
         id="path16" /><path
         style="opacity:1;fill:#5c6853;fill-opacity:0.295427;stroke:none;stroke-width:2.38125;stroke-linecap:round;stroke-linejoin:round;stroke-dasharray:none;stroke-opacity:1"
         d="m 847.67836,353.78867 c 4.36681,0.97885 12.24934,13.46242 13.66914,16.60779 1.04485,2.31474 -11.4298,-1.72819 -19.90721,-5.55598 -5.63673,-2.54514 -6.23222,-13.58929 -9.98063,-21.75092 -1.48532,-3.23409 9.71183,6.36733 16.2187,10.69911 z"
         id="path18" /><path
         style="opacity:1;fill:#5c6853;fill-opacity:0.295427;stroke:none;stroke-width:2.38125;stroke-linecap:round;stroke-linejoin:round;stroke-dasharray:none;stroke-opacity:1"
         d="m 897.80871,306.86796 c -1.13599,25.56293 -26.29966,72.86801 -5.23849,62.02011 11.82804,-6.09222 7.44025,-15.70162 8.34542,-17.7835 3.49729,-8.04383 6.2398,-24.5228 5.59935,-34.31862 -0.14706,-2.2493 2.53851,-40.50908 -8.70628,-9.91799 z"
         id="path19" /></g></g></svg>
