<?xml version="1.0" encoding="UTF-8" standalone="no"?>
<!-- Created with Inkscape (http://www.inkscape.org/) -->

<svg
   width="128.14937mm"
   height="131.66832mm"
   viewBox="0 0 128.14937 131.66832"
   version="1.1"
   id="svg1"
   xml:space="preserve"
   xmlns="http://www.w3.org/2000/svg"
   xmlns:svg="http://www.w3.org/2000/svg"><defs
     id="defs1" /><g
     id="layer1"
     transform="translate(-440.4395,-608.52646)"><g
       id="g10"><path
         style="fill:#ff2e2e;fill-opacity:1;stroke:#000000;stroke-width:5.29167;stroke-linejoin:bevel;stroke-dasharray:none;stroke-opacity:1"
         d="M 503.71095,738.10011 C 385.38022,646.79055 470.8154,576.68198 504.78492,633.9243 c 30.02676,-60.40904 121.75586,8.12513 -1.07397,104.17581 z"
         id="path3" /><path
         style="fill:#cd2b2b;fill-opacity:1;stroke:none;stroke-width:2.64583;stroke-linejoin:bevel;stroke-dasharray:none;stroke-opacity:1"
         d="m 488.46717,723.94684 c 32.65491,-28.85784 59.47182,-49.55194 63.64861,-73.85328 4.1768,-24.30135 -0.15924,-32.4766 -0.15924,-32.4766 l 4.04367,6.64154 c 0,0 2.41903,9.98843 3.15482,18.45899 2.75205,31.68235 -27.73717,65.43235 -35.65777,70.66801 -7.92056,5.23562 -18.45874,16.24447 -19.53271,17.04997 -1.07399,0.80547 -9.92452,-5.79264 -9.92452,-5.79264 z"
         id="path4" /><path
         style="fill:#cd2b2b;fill-opacity:1;stroke:none;stroke-width:14.3512;stroke-linejoin:bevel;stroke-dasharray:none;stroke-opacity:1"
         d="m 1206.9906,2291.2757 c -3.0706,4.2228 3.8472,9.3001 4.8491,13.6533 8.7562,24.9284 11.928,51.7121 13.7755,77.9825 3.9517,61.6552 -23.072,120.311 -55.9576,170.9374 -24.6688,37.3243 -52.9239,73.2674 -90.0215,98.9765 -22.0186,16.047 -40.4356,36.6861 -61.0385,54.0936 -6.2061,3.3115 -12.3251,-4.157 -17.7876,-6.3291 -10.6294,-7.2574 -21.333,-16.1249 -35.06787,-15.8059 -5.60212,-0.5471 -0.097,4.9689 1.96768,6.1862 15.99923,13.5922 31.59285,28.3751 49.23969,39.6115 19.9373,-12.9491 37.0446,-30.1465 55.1037,-45.6191 65.1162,-59.1792 126.0609,-127.1356 158.3641,-210.2081 18.5107,-47.9772 25.4219,-104.7309 1.0375,-151.9791 -6.4266,-11.3442 -13.2193,-23.6098 -23.7271,-31.5277 -0.2435,-0.045 -0.4978,-0.048 -0.7371,0.028 z"
         id="path6"
         transform="matrix(0.26458333,0,0,0.26458333,234.67958,13.702305)" /><path
         style="fill:#fd7171;fill-opacity:1;stroke:none;stroke-width:2.64583;stroke-linejoin:bevel;stroke-dasharray:none;stroke-opacity:1"
         d="m 452.96551,641.30791 c 2.26766,-34.67677 51.77084,-9.99808 12.21649,-1.20822 -3.8541,0.85645 -8.32494,2.9378 -12.21649,1.20822 z"
         id="path7" /></g></g></svg>
