<?xml version="1.0" encoding="UTF-8" standalone="no"?>
<!-- Created with Inkscape (http://www.inkscape.org/) -->

<svg
   width="48.064571mm"
   height="894.22974mm"
   viewBox="0 0 48.064571 894.22976"
   version="1.1"
   id="svg1"
   xml:space="preserve"
   xmlns="http://www.w3.org/2000/svg"
   xmlns:svg="http://www.w3.org/2000/svg"><defs
     id="defs1" /><g
     id="layer1"
     transform="translate(-851.86679,-436.68767)"><path
       id="path1"
       style="fill:none;fill-opacity:0.501606;stroke:#b9b9b9;stroke-width:4.00843;stroke-linecap:round;stroke-linejoin:round;stroke-dasharray:none;stroke-opacity:1"
       d="m 890.6468,1325.2626 c -42.0071,30.6958 -31.11542,-142.3299 5.10092,-87.1093 15.15437,23.1065 -53.8618,70.2848 -38.25702,-24.8884 4.03701,-24.6215 28.80507,-58.8342 35.91784,-18.4451 0.85354,4.8466 -34.41531,30.6275 -36.37667,-35.1651 -1.41649,-47.5151 28.03351,-61.4082 36.67549,-35.0546 7.25346,22.1192 -84.46521,-18.5627 -3.84816,-71.6066 m -1.59165,-250.68651 c 3.85983,47.0819 -25.06607,25.20548 -30.60563,1.55555 -13.26459,-56.63019 27.96712,-85.10558 30.60563,-54.44335 2.43163,28.25816 -45.14856,16.34902 -27.03498,-38.88806 3.2351,-9.86539 24.32447,-48.86891 24.68519,-24.54336 0.35578,23.99565 -26.76335,36.26921 -29.16287,-7.63467 -1.30343,-23.84857 29.664,-68.88986 29.92049,-49.08664 0.50865,39.27283 -32.15918,35.15574 -31.62582,-11.48443 0.50377,-44.04968 28.70177,-63.58427 31.12632,-21.54281 1.06411,18.45144 -31.5512,-8.14316 -29.24065,-36.32699 1.86952,-22.80429 28.51785,-42.59238 28.47773,-20.4105 -0.0593,32.81493 -26.64896,13.18482 -27.15343,-17.01643 -0.79605,-47.65737 27.61528,-50.86786 25.8088,-28.83244 -3.27017,39.88938 -50.51234,-15.90771 -12.09283,-54.96095 m 18.54387,613.69489 c 7.25341,22.1192 -31.89497,56.3347 -36.5668,-29.1451 -1.98953,-36.40238 33.36831,-61.20151 35.03648,-40.85347 3.8598,47.08187 -25.0661,25.20547 -30.60566,1.55553 -13.26455,-56.63018 27.96718,-85.10558 30.60566,-54.44334 2.43165,28.25817 -45.14854,16.34902 -27.03501,-38.88807 3.23514,-9.86537 24.32453,-48.86891 24.68519,-24.54333 0.35587,23.99562 -26.76333,36.26919 -29.16287,-7.6347 -1.30337,-23.84856 30.5831,-75.08213 30.83963,-55.27891" /></g></svg>
